<?xml version="1.0" encoding="utf-8"?>
<!-- Generator: Adobe Illustrator 23.0.1, SVG Export Plug-In . SVG Version: 6.00 Build 0)  -->
<svg version="1.1" id="Capa_1" xmlns="http://www.w3.org/2000/svg" xmlns:xlink="http://www.w3.org/1999/xlink" x="0px" y="0px"
	 viewBox="0 0 731 200.1" style="enable-background:new 0 0 731 200.1;" xml:space="preserve">
<style type="text/css">
	.st0{fill:#1E6088;}
	.st1{fill:#FBB03B;}
</style>
<title>logo-light</title>
<g>
	<g id="a4fe1245-7235-4079-9cac-9c6e7dd68e9b">
		<g>
			<g>
				<path class="st0" d="M6.9,92.5c6.5,3.7,13.4,6.9,20.5,9.4c5.3,1.7,10.7,2.6,16.3,2.7c5.3,0,9.8-1.1,13-3.3s5-4.8,5-8.2
					c0-4.8-5.7-10.1-17.4-16.3c-1.9-1-3.3-1.7-4.2-2.3l-8.8-4.4c-8.6-4.4-14.9-9.4-18.9-14.7C8.2,50,6,43.4,6.2,36.6
					c0-9.4,4-17.2,11.9-23.1c7.9-6.1,18-9,30.6-9c5,0.1,10,0.6,14.9,1.5c6.1,1.2,12.1,2.7,18,4.6v27.6c-5.7-3.3-11.6-6.1-17.8-8.2
					c-4.6-1.7-9.5-2.7-14.4-2.9c-4.4,0-7.8,0.8-10.3,2.5c-2.4,1.5-3.8,4.1-3.8,6.9c0,2.1,0.8,4.2,2.3,5.7c1.9,2,4.2,3.7,6.7,4.8
					l15.3,7.7c12.6,6.3,21.2,12.2,25.6,17.6c4.4,5.4,6.7,12.2,6.5,19.1c0,11.5-4.4,20.6-13,27.7s-20.1,10.5-34.4,10.5
					c-5.3,0-10.5-0.4-15.7-1.3c-6.3-1.1-12.6-2.5-18.8-4.2L6.9,92.5z"/>
				<polygon class="st0" points="134.7,125.8 134.7,33 93.4,33 93.4,8.3 206.8,8.3 206.8,32.8 165.7,32.8 165.7,125.6 134.7,125.6 
									"/>
				<path class="st0" d="M327.7,125.8V8.3h33.5c10.7,0,18.9,0.6,24.9,1.9c5.5,1.2,10.8,3.3,15.7,6.3c4.6,2.9,8.5,6.9,11.3,11.7
					c2.6,4.4,4,9.4,4,14.5c0.1,7-2.1,13.9-6.3,19.5c-4.2,5.6-10.1,10-18,13l39.6,50.5H397l-34.6-46.1H358v46.1L327.7,125.8z
					 M362.9,29.8h-5.2v32.5h6.5c7.8,0,13.8-1.3,18-4.2s6.1-6.9,6.1-12.2c0-5.6-1.9-9.8-5.9-12.2S371.9,29.8,362.9,29.8"/>
				<path class="st0" d="M19.4,145.8v20.7c0,4,1.2,6.9,3.3,8.8s5.4,3.1,9.6,3.1s7.3-1,9.4-3.1s3.3-5,3.3-9v-20.5h5v21.2
					c0,4.8-1.5,8.4-4.8,11.3c-3.1,2.7-7.5,4-12.8,4c-5.7,0-10.3-1.3-13.4-4c-3.3-2.7-4.8-6.3-4.8-11.3v-21.2H19.4z"/>
				<polygon class="st0" points="75.6,181 75.6,144.7 76.4,144.7 106.8,172.2 106.8,145.8 112.1,145.8 112.1,182.2 111.4,182.2 
					81,154.6 81,181 				"/>
				<rect x="138.5" y="145.8" class="st0" width="5.4" height="35.2"/>
				<polygon class="st0" points="185,182.4 184.3,182.4 164.7,145.8 170.5,145.8 185,173.4 199.9,145.8 205.3,145.8 				"/>
				<polygon class="st0" points="225.8,181 225.8,145.8 250.8,145.8 250.8,149.3 231.1,149.3 231.1,160.8 248.1,160.8 248.1,164.4 
					231.1,164.4 231.1,177.2 251.2,177.2 251.2,181 				"/>
				<path class="st0" d="M274.2,181v-35.2h9.6c6.3,0,11.3,1,14.5,2.7s5,4.2,5,7.6c0,2.5-1.2,4.9-3.3,6.5c-2.5,1.9-5.5,3.1-8.6,3.4
					l16.6,15.1h-6.9l-15.9-14.5h-5.7v14.5h-5.4L274.2,181z M279.5,163.2h4.6c4.4,0,7.9-0.6,10.3-1.9c2.1-0.9,3.5-3,3.5-5.4
					c0.1-2.3-1.3-4.5-3.5-5.4c-2.3-1.1-6.1-1.7-11.1-1.7h-3.6v14.4H279.5z"/>
				<path class="st0" d="M327.3,174.5c2.4,1.1,4.8,2.1,7.3,2.9c1.9,0.6,3.9,0.9,5.9,1c2.4,0.1,4.8-0.5,6.9-1.7
					c1.7-1,2.7-2.7,2.7-4.7c0-1.6-0.7-3-1.9-4c-2.1-1.6-4.5-2.7-7.1-3.4l-3.1-1.1c-2.8-0.9-5.4-2.3-7.6-4.2
					c-1.6-1.5-2.5-3.6-2.5-5.7c0-2.7,1.4-5.1,3.6-6.5c2.5-1.7,5.5-2.5,9.6-2.5c1.9,0,3.7,0.2,5.5,0.6c1.8,0.3,3.5,0.9,5.2,1.7v4.6
					c-1.8-1.1-3.7-1.9-5.7-2.5c-1.7-0.5-3.5-0.8-5.4-0.8c-2-0.1-4,0.4-5.7,1.5c-1.4,0.8-2.2,2.3-2.1,3.8c0,1.5,0.7,2.9,1.9,3.8
					c1.3,1.1,3.5,2.1,6.5,3.3l3.3,1.1c3.4,1.1,6.3,2.7,8,4.6c1.8,1.5,2.7,3.8,2.7,6.1c0,3-1.5,5.7-4,7.3c-2.7,1.9-6.1,2.9-10.5,2.9
					c-2.1,0-4.2-0.2-6.3-0.6c-2.3-0.5-4.5-1.1-6.7-1.9L327.3,174.5z"/>
				<rect x="378.8" y="145.8" class="st0" width="5.4" height="35.2"/>
				<polygon class="st0" points="421.3,181 421.3,149.5 405.2,149.5 405.2,145.7 442.9,145.7 442.9,149.5 426.8,149.5 426.8,181 
									"/>
				<polygon class="st0" points="477.9,181 477.9,165.9 460.3,145.8 466.6,145.8 480.7,162.1 496,145.8 502,145.8 483.2,165.5 
					483.2,181 				"/>
				<polygon class="st1" points="218.9,122.5 252,61.3 286.6,125.8 319.1,125.8 254.3,4.7 252.4,4.7 186.2,125.8 217.3,125.8 				
					"/>
				<polygon class="st0" points="539.7,8.3 426.6,8.3 426.2,8.3 426.2,33 426.6,33 467.5,33 467.5,125.8 467.9,125.8 498.5,125.8 
					498.9,125.8 498.9,33 540,33 540,8.3 				"/>
				<path class="st1" d="M599,189.1c4.6-1.9,9.2-3.7,13.7-5.7c8.1-3.6,15.9-7.6,22.5-13.1c4.7-3.9,7.5-8.4,7.1-14.7
					c-0.8-12.4-0.9-24.8-1.3-37.8c-1.2,1.9-2,3.4-3,4.7c-6.6,9-16,14.9-26.6,19.4c-4,1.7-8.3,3-12.4,4.6c-0.7,0.3-1.6,1.1-1.6,1.7
					c0.3,13.3,0.8,26.6,1.3,39.9C598.8,188.5,598.9,188.8,599,189.1"/>
				<path class="st1" d="M724.3,107.4v3.1L648.3,157c0.1-1,0.1-2,0.1-3c-0.8-12.7-1-25.4-1.4-38.5l7.6-4.5l-99-54.9V4.8L724.3,107.4
					z"/>
				<path class="st0" d="M587.5,185c-0.5-14.4-0.9-28.2-1.4-42c20.2-2.6,38.5-8.2,51.6-22.8c-2.9,1.9-5.7,3.9-8.8,5.6
					c-13,7.2-27.4,10.7-42.4,12.7c-3.3,0.4-6.6,0.7-10,1c-1.6,0.1-2,0.7-2,2.1c0.5,12.1,0.8,24.2,1.3,36.4c0,0.7,0.2,1.7,0.7,2
					C579.9,181.6,583.4,183.2,587.5,185"/>
				<path class="st1" d="M635.8,119.5c-26.6,9.9-54.8,11.9-83.7,10.7c0,0.9-0.1,1.8-0.1,2.7c0.2,7.7,0.8,15.4,0.7,23.1
					c-0.1,5.4,2.2,9.5,6.4,13c1.6,1.4,3.3,2.6,5.4,4.2c0-1.1,0.1-1.7,0.1-2.4c-0.3-11.2-0.7-22.5-1.1-33.7c-0.1-1.9,0.6-2.3,2.6-2.4
					c18.9-0.4,37.5-2.6,55.2-8.5c5.1-1.7,10-4.1,15-6.1L635.8,119.5"/>
				<path class="st0" d="M637.1,117.9c-14.1,2.3-28.3,3.4-42.6,3.3c-14.4-0.1-28.8-1.6-42.9-4.3c0,1.7,0.1,3.4,0.2,5.1
					c0.3,0.6,0.9,1.1,1.6,1.2c15.3,2.1,30.9,2.6,46.3,1.5c12.1-0.8,24.2-2.9,35.8-6.3C636.1,118.2,636.5,118,637.1,117.9"/>
			</g>
			<path class="st1" d="M635.8,119.5c-26.6,9.9-54.8,11.9-83.7,10.7c0,0.9-0.1,1.8-0.1,2.7c0.2,7.7,0.8,15.4,0.7,23.1
				c-0.1,5.4,2.2,9.5,6.4,13c1.6,1.4,3.3,2.6,5.4,4.2c0-1.1,0.1-1.7,0.1-2.4c-0.3-11.2-0.7-22.5-1.1-33.7c-0.1-1.9,0.6-2.3,2.6-2.4
				c18.9-0.4,37.5-2.6,55.2-8.5c5.1-1.7,10-4.1,15-6.1L635.8,119.5"/>
		</g>
	</g>
</g>
</svg>
